<?xml version="1.0" encoding="UTF-8"?>
<svg id="_레이어_2" data-name="레이어 2" xmlns="http://www.w3.org/2000/svg" viewBox="0 0 63.22 68.03">
  <defs>
    <style>
      .cls-1 {
        stroke-width: 0px;
      }

      .cls-1, .cls-2 {
        fill: #fff;
      }

      .cls-3 {
        fill: none;
      }

      .cls-3, .cls-2 {
        stroke: #fff;
        stroke-miterlimit: 10;
        stroke-width: 5.67px;
      }
    </style>
  </defs>
  <g id="_레이어_1-2" data-name="레이어 1">
    <g>
      <path class="cls-3" d="M8.93,42.52c0,14.09,8.59,22.68,22.68,22.68s22.68-8.59,22.68-22.68"/>
      <g>
        <line class="cls-3" x1="1.84" y1="34.02" x2="26.27" y2="13.08"/>
        <line class="cls-1" x1="1.84" y1="34.02" x2="26.27" y2="13.08"/>
      </g>
      <line class="cls-2" x1="61.37" y1="34.02" x2="36.8" y2="12.95"/>
      <g>
        <circle class="cls-1" cx="31.61" cy="8.5" r="5.67"/>
        <path class="cls-1" d="M31.61,5.67c1.56,0,2.83,1.27,2.83,2.83s-1.27,2.83-2.83,2.83-2.83-1.27-2.83-2.83,1.27-2.83,2.83-2.83M31.61,0c-4.7,0-8.5,3.81-8.5,8.5s3.81,8.5,8.5,8.5,8.5-3.81,8.5-8.5S36.31,0,31.61,0h0Z"/>
      </g>
      <g>
        <path class="cls-1" d="M23.1,50.27c-1.93,0-3.5-1.57-3.5-3.5v-8.5c0-1.93,1.57-3.5,3.5-3.5s3.5,1.57,3.5,3.5v8.5c0,1.93-1.57,3.5-3.5,3.5Z"/>
        <path class="cls-1" d="M23.1,35.52c1.52,0,2.75,1.23,2.75,2.75v8.5c0,1.52-1.23,2.75-2.75,2.75s-2.75-1.23-2.75-2.75v-8.5c0-1.52,1.24-2.75,2.75-2.75M23.1,34.02c-2.35,0-4.25,1.9-4.25,4.25h0v8.5c0,2.35,1.9,4.25,4.25,4.25s4.25-1.9,4.25-4.25v-8.5h0c0-2.35-1.9-4.25-4.25-4.25h0Z"/>
      </g>
      <g>
        <path class="cls-1" d="M40.11,50.27c-1.93,0-3.5-1.57-3.5-3.5v-8.5c0-1.93,1.57-3.5,3.5-3.5s3.5,1.57,3.5,3.5v8.5c0,1.93-1.57,3.5-3.5,3.5Z"/>
        <path class="cls-1" d="M40.11,35.52c1.52,0,2.75,1.23,2.75,2.75v8.5c0,1.52-1.23,2.75-2.75,2.75s-2.75-1.23-2.75-2.75v-8.5c0-1.52,1.24-2.75,2.75-2.75M40.11,34.02c-2.35,0-4.25,1.9-4.25,4.25h0v8.5c0,2.35,1.9,4.25,4.25,4.25s4.25-1.9,4.25-4.25v-8.5h0c0-2.35-1.9-4.25-4.25-4.25h0Z"/>
      </g>
    </g>
  </g>
</svg>